<?xml version="1.0" encoding="UTF-8"?>
<svg width="512" height="512" viewBox="0 0 512 512" fill="none" xmlns="http://www.w3.org/2000/svg">
  <!-- Background Circle -->
  <circle cx="256" cy="256" r="240" fill="#4361ee" stroke="#ffffff" stroke-width="16"/>
  
  <!-- Document Icon -->
  <rect x="180" y="150" width="152" height="212" rx="16" fill="white"/>
  
  <!-- Document Lines -->
  <rect x="200" y="180" width="80" height="12" rx="6" fill="#4361ee"/>
  <rect x="200" y="210" width="112" height="12" rx="6" fill="#4361ee"/>
  <rect x="200" y="240" width="96" height="12" rx="6" fill="#4361ee"/>
  <rect x="200" y="270" width="64" height="12" rx="6" fill="#4361ee"/>
  <rect x="200" y="300" width="88" height="12" rx="6" fill="#4361ee"/>
  <rect x="200" y="330" width="72" height="12" rx="6" fill="#4361ee"/>
  
  <!-- AI Sparks -->
  <circle cx="320" cy="180" r="8" fill="#4895ef"/>
  <circle cx="340" cy="220" r="6" fill="#4895ef"/>
  <circle cx="300" cy="300" r="6" fill="#4895ef"/>
  <circle cx="350" cy="280" r="5" fill="#4895ef"/>
  
  <!-- Connection Lines -->
  <line x1="320" y1="180" x2="340" y2="220" stroke="#4895ef" stroke-width="4" opacity="0.7"/>
  <line x1="340" y1="220" x2="350" y2="280" stroke="#4895ef" stroke-width="4" opacity="0.7"/>
  <line x1="350" y1="280" x2="300" y2="300" stroke="#4895ef" stroke-width="4" opacity="0.7"/>
  
  <!-- Letter "G" for GeraDocumentos -->
  <text x="256" y="420" font-family="Poppins, Arial, sans-serif" font-size="64" font-weight="700" fill="white" text-anchor="middle">
    G
  </text>
</svg>
