<?xml version="1.0" encoding="UTF-8"?>
<svg width="1200" height="630" viewBox="0 0 1200 630" fill="none" xmlns="http://www.w3.org/2000/svg">
  <!-- Background Gradient -->
  <defs>
    <linearGradient id="bgGradient" x1="0%" y1="0%" x2="100%" y2="100%">
      <stop offset="0%" style="stop-color:#4361ee;stop-opacity:1" />
      <stop offset="100%" style="stop-color:#3f37c9;stop-opacity:1" />
    </linearGradient>
  </defs>
  
  <rect width="1200" height="630" fill="url(#bgGradient)"/>
  
  <!-- Main Logo Circle -->
  <circle cx="300" cy="315" r="120" fill="white" opacity="0.15"/>
  <circle cx="300" cy="315" r="100" fill="white"/>
  
  <!-- Document Icon -->
  <rect x="240" y="240" width="80" height="110" rx="8" fill="#4361ee"/>
  <rect x="250" y="260" width="40" height="6" rx="3" fill="white"/>
  <rect x="250" y="275" width="60" height="6" rx="3" fill="white"/>
  <rect x="250" y="290" width="50" height="6" rx="3" fill="white"/>
  <rect x="250" y="305" width="35" height="6" rx="3" fill="white"/>
  <rect x="250" y="320" width="45" height="6" rx="3" fill="white"/>
  <rect x="250" y="335" width="40" height="6" rx="3" fill="white"/>
  
  <!-- AI Elements -->
  <circle cx="340" cy="260" r="6" fill="#4895ef"/>
  <circle cx="360" cy="300" r="5" fill="#4895ef"/>
  <circle cx="320" cy="360" r="5" fill="#4895ef"/>
  <circle cx="370" cy="340" r="4" fill="#4895ef"/>
  
  <!-- Connection Lines -->
  <line x1="340" y1="260" x2="360" y2="300" stroke="#4895ef" stroke-width="3" opacity="0.8"/>
  <line x1="360" y1="300" x2="370" y2="340" stroke="#4895ef" stroke-width="3" opacity="0.8"/>
  <line x1="370" y1="340" x2="320" y2="360" stroke="#4895ef" stroke-width="3" opacity="0.8"/>
  
  <!-- Company Name -->
  <text x="450" y="280" font-family="Poppins, Arial, sans-serif" font-size="72" font-weight="700" fill="white">
    GeraDocumentos
  </text>
  
  <!-- Tagline -->
  <text x="450" y="330" font-family="Roboto, Arial, sans-serif" font-size="36" font-weight="400" fill="white" opacity="0.9">
    Documentos Profissionais com Inteligência Artificial
  </text>
  
  <!-- Domain -->
  <text x="450" y="380" font-family="Roboto, Arial, sans-serif" font-size="28" font-weight="300" fill="#4895ef">
    www.geradocumentos.com.br
  </text>
  
  <!-- Decorative elements -->
  <circle cx="1000" cy="150" r="3" fill="white" opacity="0.3"/>
  <circle cx="1050" cy="200" r="2" fill="white" opacity="0.3"/>
  <circle cx="980" cy="480" r="4" fill="white" opacity="0.3"/>
  <circle cx="1100" cy="450" r="2.5" fill="white" opacity="0.3"/>
  
  <!-- Bottom accent -->
  <rect x="0" y="580" width="1200" height="50" fill="white" opacity="0.1"/>
</svg>
